<svg width="800" height="800" viewBox="0 0 24 24" xmlns="http://www.w3.org/2000/svg" class="icon glyph"><path d="M21.6 9.84a4.6 4.6 0 0 1-.42-.84 4 4 0 0 1-.18-.93 4.2 4.2 0 0 0-.64-2.16 4.25 4.25 0 0 0-1.87-1.28 5 5 0 0 1-.85-.43 5 5 0 0 1-.64-.66 4.2 4.2 0 0 0-1.8-1.4 4.2 4.2 0 0 0-2.2.07 4.24 4.24 0 0 1-1.94 0 4.2 4.2 0 0 0-2.24-.07A4.2 4.2 0 0 0 7 3.54a5 5 0 0 1-.66.66 5 5 0 0 1-.85.43 4.25 4.25 0 0 0-1.88 1.28A4.2 4.2 0 0 0 3 8.07a4 4 0 0 1-.18.93 4.6 4.6 0 0 1-.42.82A4.3 4.3 0 0 0 1.63 12a4.3 4.3 0 0 0 .77 2.16 4 4 0 0 1 .42.82 4 4 0 0 1 .15.95 4.2 4.2 0 0 0 .64 2.16 4.25 4.25 0 0 0 1.87 1.28 5 5 0 0 1 .85.43 5 5 0 0 1 .66.66 4.1 4.1 0 0 0 1.8 1.4 3 3 0 0 0 .87.13 6.7 6.7 0 0 0 1.34-.18 4 4 0 0 1 1.94 0 4.33 4.33 0 0 0 2.24.06 4.1 4.1 0 0 0 1.8-1.4 5 5 0 0 1 .66-.66 5 5 0 0 1 .85-.43 4.25 4.25 0 0 0 1.87-1.28 4.2 4.2 0 0 0 .64-2.16 4 4 0 0 1 .15-.95 4.6 4.6 0 0 1 .42-.82 4.3 4.3 0 0 0 .8-2.17 4.3 4.3 0 0 0-.77-2.16m-4.89.87-5 5a1 1 0 0 1-1.42 0l-3-3a1 1 0 1 1 1.42-1.42l2.29 2.3 4.29-4.3a1 1 0 0 1 1.42 1.42" style="fill:#231f20"/></svg>
